<?xml version="1.0" encoding="UTF-8"?>
<svg version="1.1" xmlns="http://www.w3.org/2000/svg" width="70" height="70">
<path d="M0 0 C2.6875 1.875 2.6875 1.875 5 4 C6.175625 4.45375 7.35125 4.9075 8.5625 5.375 C14.71009325 8.28113499 16.96087683 14.22726559 19.3046875 20.3359375 C20.42909383 24.64405613 20.25017891 28.73292228 19 33 C18.0300785 34.35537082 17.03160478 35.69096625 16 37 C15.71125 37.99 15.4225 38.98 15.125 40 C13.74503062 43.67991835 12.26410571 44.87453582 9 47 C7.34183216 47.68753301 5.67540664 48.35561283 4 49 C3.38898437 49.49628906 2.77796875 49.99257813 2.1484375 50.50390625 C-1.5465091 53.0769327 -5.58757875 53.12878034 -10 53 C-13.61275191 52.08195152 -16.33678114 50.66321886 -19 48 C-20.670625 47.38125 -20.670625 47.38125 -22.375 46.75 C-28.78870102 44.05438653 -30.71459407 37.69432557 -33.265625 31.66015625 C-34.9555013 25.538849 -33.96874033 20.96621052 -31.3125 15.3125 C-30.81363281 14.21550781 -30.31476562 13.11851563 -29.80078125 11.98828125 C-26.81813176 7.03876529 -23.25113428 5.01966703 -18 3 C-17.319375 2.484375 -16.63875 1.96875 -15.9375 1.4375 C-11.22260104 -2.06065084 -5.46488446 -1.16977102 0 0 Z M-9 22 C-9 22.66 -9 23.32 -9 24 C-9.99 24.495 -9.99 24.495 -11 25 C-11 25.99 -11 26.98 -11 28 C-8.64632287 28.6878236 -8.64632287 28.6878236 -6 29 C-5.01 28.34 -4.02 27.68 -3 27 C-3 26.01 -3 25.02 -3 24 C-4.98 23.34 -6.96 22.68 -9 22 Z " fill="#DCE9DA" transform="translate(42,9)"/>
<path d="M0 0 C0.99 0.66 1.98 1.32 3 2 C1.68 2 0.36 2 -1 2 C-1 4.97 -1 7.94 -1 11 C-1.66 11 -2.32 11 -3 11 C-3 8.03 -3 5.06 -3 2 C-6.96 3.98 -6.96 3.98 -11 6 C-8.69 7.32 -6.38 8.64 -4 10 C-4.33 11.32 -4.66 12.64 -5 14 C-5.99 13.34 -6.98 12.68 -8 12 C-9.9896995 11.60986284 -11.99019869 11.26797351 -14 11 C-14 11.99 -14 12.98 -14 14 C-14.66 14 -15.32 14 -16 14 C-16.33 12.35 -16.66 10.7 -17 9 C-17.99 9.33 -18.98 9.66 -20 10 C-20.53034152 11.65731725 -21.04796455 13.32132947 -21.4609375 15.01171875 C-22.31409143 18.15849666 -23.66613541 21.02911978 -25 24 C-22.36 24 -19.72 24 -17 24 C-17 25.32 -17 26.64 -17 28 C-19.64 28 -22.28 28 -25 28 C-24.01 29.98 -23.02 31.96 -22 34 C-19.29068581 33.84518205 -17.53415961 33.51827919 -15.5546875 31.59765625 C-14.32320358 30.10228292 -13.1570163 28.5537076 -12 27 C-13.20381448 24.50638429 -14.45428722 22.31856917 -16 20 C-16 18.68 -16 17.36 -16 16 C-15.34 16 -14.68 16 -14 16 C-13.34 16.99 -12.68 17.98 -12 19 C-11.67 18.01 -11.34 17.02 -11 16 C-10.401875 16.495 -9.80375 16.99 -9.1875 17.5 C-7.02970006 19.28276418 -7.02970006 19.28276418 -4 19 C-4 18.01 -4 17.02 -4 16 C-3.01 16 -2.02 16 -1 16 C-1 18.31 -1 20.62 -1 23 C-2.98 23.99 -2.98 23.99 -5 25 C-4.67 25.99 -4.34 26.98 -4 28 C-3.01 28.33 -2.02 28.66 -1 29 C-1 31.31 -1 33.62 -1 36 C-1.99 36 -2.98 36 -4 36 C-4.33 35.34 -4.66 34.68 -5 34 C-5.928125 34.825 -6.85625 35.65 -7.8125 36.5 C-10.625 39 -10.625 39 -14 39 C-13.67 40.98 -13.34 42.96 -13 45 C-12.34 45 -11.68 45 -11 45 C-11 45.66 -11 46.32 -11 47 C-8.69 47.66 -6.38 48.32 -4 49 C-4.020625 48.05125 -4.04125 47.1025 -4.0625 46.125 C-4 43 -4 43 -3 41 C-2.34 41 -1.68 41 -1 41 C-1 43.64 -1 46.28 -1 49 C0.65 49 2.3 49 4 49 C4 49.66 4 50.32 4 51 C-0.34676116 52.21236196 -4.51304357 52.59826086 -9 52 C-11.625 50.1875 -11.625 50.1875 -14 48 C-15.175625 47.54625 -16.35125 47.0925 -17.5625 46.625 C-23.85968254 43.64815007 -25.68382298 37.76711102 -28.265625 31.66015625 C-29.9555013 25.538849 -28.96874033 20.96621052 -26.3125 15.3125 C-25.81363281 14.21550781 -25.31476562 13.11851563 -24.80078125 11.98828125 C-21.81813176 7.03876529 -18.25113428 5.01966703 -13 3 C-12.4225 2.46375 -11.845 1.9275 -11.25 1.375 C-7.75524212 -0.76068537 -3.9985001 -0.56700646 0 0 Z " fill="#E5EFDF" transform="translate(37,9)"/>
<path d="M0 0 C9.85828397 0.21056529 9.85828397 0.21056529 13.125 3.5625 C14.053125 4.7690625 14.053125 4.7690625 15 6 C14.67 6.99 14.34 7.98 14 9 C14.495 9.99 14.495 9.99 15 11 C15.039992 12.99960012 15.04346799 15.00047242 15 17 C14.34 16.67 13.68 16.34 13 16 C13.33 15.34 13.66 14.68 14 14 C10.48994665 15.6380249 7.54456151 17.03134491 5 20 C4.67 19.34 4.34 18.68 4 18 C3.01 17.67 2.02 17.34 1 17 C1 17.99 1 18.98 1 20 C-0.8125 20.6875 -0.8125 20.6875 -3 21 C-4.75 19.5625 -4.75 19.5625 -6 18 C-6.33 19.32 -6.66 20.64 -7 22 C-7.66 20.35 -8.32 18.7 -9 17 C-9.66 17 -10.32 17 -11 17 C-9.12297673 21.89562693 -9.12297673 21.89562693 -6 26 C-6 26.99 -6 27.98 -6 29 C-7.30144802 30.04115841 -8.63838689 31.03886134 -10 32 C-10.66 32.99 -11.32 33.98 -12 35 C-15 35.375 -15 35.375 -18 35 C-20 32 -20 32 -20 29 C-16.04 28.505 -16.04 28.505 -12 28 C-12 27.34 -12 26.68 -12 26 C-14.64 25.67 -17.28 25.34 -20 25 C-19.67 23.02 -19.34 21.04 -19 19 C-18.01 18.67 -17.02 18.34 -16 18 C-16.33 17.01 -16.66 16.02 -17 15 C-16.08392564 12.25177691 -15.39272383 11.23101402 -12.875 9.75 C-12.25625 9.5025 -11.6375 9.255 -11 9 C-11 10.98 -11 12.96 -11 15 C-10.34 15 -9.68 15 -9 15 C-9 14.01 -9 13.02 -9 12 C-3.375 11.75 -3.375 11.75 0 14 C0.33 12.68 0.66 11.36 1 10 C0.05125 9.87625 -0.8975 9.7525 -1.875 9.625 C-5 9 -5 9 -7 7 C-0.25 3 -0.25 3 2 3 C2 5.97 2 8.94 2 12 C2.66 12 3.32 12 4 12 C3.98839844 11.36191406 3.97679688 10.72382813 3.96484375 10.06640625 C3.95582031 9.24011719 3.94679688 8.41382813 3.9375 7.5625 C3.92589844 6.73878906 3.91429688 5.91507813 3.90234375 5.06640625 C4 3 4 3 5 2 C2.525 1.505 2.525 1.505 0 1 C0 0.67 0 0.34 0 0 Z " fill="#DCE8DB" transform="translate(32,8)"/>
<path d="M0 0 C0.66 0 1.32 0 2 0 C5.73812926 6.48310241 8.45118794 12.38136929 8 20 C6.8125 23.625 6.8125 23.625 5 27 C4.69707031 27.71671875 4.39414062 28.4334375 4.08203125 29.171875 C3.17646322 31.25652956 2.3006853 33.13538121 1 35 C-1.75 36 -1.75 36 -4 36 C-3.525625 35.2575 -3.05125 34.515 -2.5625 33.75 C-1.22130673 31.38949985 -0.487688 29.63351523 0 27 C-1.32 27.33 -2.64 27.66 -4 28 C-4.144375 28.94875 -4.28875 29.8975 -4.4375 30.875 C-5 34 -5 34 -6 36 C-9.96 35.505 -9.96 35.505 -14 35 C-14.495 33.515 -14.495 33.515 -15 32 C-11.535 31.505 -11.535 31.505 -8 31 C-8.5775 30.7525 -9.155 30.505 -9.75 30.25 C-12.3988272 28.77842934 -14.10374141 27.37032324 -16 25 C-16.25 22.25 -16.25 22.25 -16 20 C-15.2575 20.185625 -14.515 20.37125 -13.75 20.5625 C-11.05009037 20.99203108 -9.55368923 20.85122974 -7 20 C-6.608125 20.639375 -6.21625 21.27875 -5.8125 21.9375 C-3.61527704 24.43778819 -2.24208567 24.64950425 1 25 C1.99 23.02 2.98 21.04 4 19 C2.081875 19.0309375 2.081875 19.0309375 0.125 19.0625 C-3.75 19.125 -3.75 19.125 -6 18 C-6 17.34 -6 16.68 -6 16 C-2.78548731 14.39274365 0.43612536 14.94251815 4 15 C3.525625 13.906875 3.05125 12.81375 2.5625 11.6875 C0.81083727 7.65105979 -0.12000088 4.44003267 0 0 Z " fill="#D8E7D7" transform="translate(54,18)"/>
<path d="M0 0 C0.33 0.99 0.66 1.98 1 3 C4.0745356 2.2236068 4.0745356 2.2236068 6 0 C6.5775 0.61875 7.155 1.2375 7.75 1.875 C9.80249821 3.81347053 11.43366582 4.90014249 14 6 C14.33 5.01 14.66 4.02 15 3 C14.67 4.65 14.34 6.3 14 8 C12.02 8.33 10.04 8.66 8 9 C8 9.66 8 10.32 8 11 C10.31 11.33 12.62 11.66 15 12 C16.41377341 9.36095629 17.37240135 6.92879371 18 4 C19.32 3.67 20.64 3.34 22 3 C21.45276317 6.37462715 20.9451 8.08235 19 11 C19.66 11.66 20.32 12.32 21 13 C19.30729167 13.68359375 17.61458333 14.3671875 15.921875 15.05078125 C13.90797183 15.95544435 13.90797183 15.95544435 12.09375 17.5625 C9.54852451 19.30996825 7.80786583 19.48632462 4.75 19.6875 C3.85796875 19.75324219 2.9659375 19.81898437 2.046875 19.88671875 C1.37140625 19.92410156 0.6959375 19.96148437 0 20 C0 19.67 0 19.34 0 19 C2.97 18.67 5.94 18.34 9 18 C9 17.34 9 16.68 9 16 C7.35 16 5.7 16 4 16 C4 13.36 4 10.72 4 8 C3.34 8 2.68 8 2 8 C1.67 10.64 1.34 13.28 1 16 C-3.75 15.125 -3.75 15.125 -6 14 C-6 13.34 -6 12.68 -6 12 C-6.66 12 -7.32 12 -8 12 C-8.33 10.02 -8.66 8.04 -9 6 C-8.071875 5.566875 -7.14375 5.13375 -6.1875 4.6875 C-3.52815927 3.27961373 -1.91894095 2.23876444 0 0 Z " fill="#E5EFDE" transform="translate(32,42)"/>
<path d="M0 0 C0.99 0.66 1.98 1.32 3 2 C1.68 2 0.36 2 -1 2 C-1 4.97 -1 7.94 -1 11 C-1.66 11 -2.32 11 -3 11 C-3 8.03 -3 5.06 -3 2 C-6.96 3.98 -6.96 3.98 -11 6 C-8.69 7.32 -6.38 8.64 -4 10 C-4.33 11.32 -4.66 12.64 -5 14 C-5.99 13.34 -6.98 12.68 -8 12 C-9.9896995 11.60986284 -11.99019869 11.26797351 -14 11 C-14 11.99 -14 12.98 -14 14 C-14.66 14 -15.32 14 -16 14 C-16.33 12.35 -16.66 10.7 -17 9 C-17.99 9.33 -18.98 9.66 -20 10 C-20.53034152 11.65731725 -21.04796455 13.32132947 -21.4609375 15.01171875 C-22.31409143 18.15849666 -23.66613541 21.02911978 -25 24 C-22.36 24 -19.72 24 -17 24 C-17 25.32 -17 26.64 -17 28 C-19.97 27.67 -22.94 27.34 -26 27 C-26.33 28.32 -26.66 29.64 -27 31 C-29.06502086 24.80493742 -28.59872527 19.59185198 -25.8125 13.6875 C-22.60537637 7.86047257 -19.1287017 5.35719296 -13 3 C-12.4225 2.46375 -11.845 1.9275 -11.25 1.375 C-7.75524212 -0.76068537 -3.9985001 -0.56700646 0 0 Z " fill="#E3EDDE" transform="translate(37,9)"/>
<path d="M0 0 C0.66 0 1.32 0 2 0 C2.66 0.99 3.32 1.98 4 3 C4.33 2.01 4.66 1.02 5 0 C5.8971875 0.7425 5.8971875 0.7425 6.8125 1.5 C8.97029994 3.28276418 8.97029994 3.28276418 12 3 C12 2.01 12 1.02 12 0 C12.99 0 13.98 0 15 0 C15 2.31 15 4.62 15 7 C13.02 7.99 13.02 7.99 11 9 C11.33 9.99 11.66 10.98 12 12 C12.99 12.33 13.98 12.66 15 13 C15 15.31 15 17.62 15 20 C14.01 20 13.02 20 12 20 C11.67 19.34 11.34 18.68 11 18 C9.68 18.99 8.36 19.98 7 21 C6.67 20.34 6.34 19.68 6 19 C5.01 19 4.02 19 3 19 C3 18.34 3 17.68 3 17 C2.34 17 1.68 17 1 17 C1.62759865 14.07120629 2.58622659 11.63904371 4 9 C3.34 8.2575 2.68 7.515 2 6.75 C0 4 0 4 0 0 Z " fill="#E6F0DF" transform="translate(21,25)"/>
<path d="M0 0 C2 1.75 2 1.75 4 4 C4 5.32 4 6.64 4 8 C2.906875 7.979375 1.81375 7.95875 0.6875 7.9375 C-2.94384191 7.81455548 -2.94384191 7.81455548 -6 9 C-6 9.66 -6 10.32 -6 11 C-2.52674819 12.1577506 0.36067448 12.06866652 4 12 C3.67 13.65 3.34 15.3 3 17 C-0.13349732 18.04449911 -0.98968256 17.93423645 -4 17 C-4.33 17.66 -4.66 18.32 -5 19 C-5.45375 18.05125 -5.9075 17.1025 -6.375 16.125 C-7.80238254 12.99686321 -7.80238254 12.99686321 -10 11 C-10 8 -10 8 -8.125 6 C-7.42375 5.34 -6.7225 4.68 -6 4 C-5.34 3.01 -4.68 2.02 -4 1 C-4 1.66 -4 2.32 -4 3 C-3.01 2.67 -2.02 2.34 -1 2 C-0.67 1.34 -0.34 0.68 0 0 Z " fill="#53A37D" transform="translate(54,25)"/>
<path d="M0 0 C0.66 0 1.32 0 2 0 C2 0.66 2 1.32 2 2 C3.65 1.67 5.3 1.34 7 1 C7.45375 1.78375 7.9075 2.5675 8.375 3.375 C9.88428742 6.03698031 9.88428742 6.03698031 12 8 C12 8.99 12 9.98 12 11 C10.69855198 12.04115841 9.36161311 13.03886134 8 14 C7.01 15.485 7.01 15.485 6 17 C3 17.375 3 17.375 0 17 C-2 14 -2 14 -2 11 C0.64 10.67 3.28 10.34 6 10 C6 9.34 6 8.68 6 8 C3.36 7.67 0.72 7.34 -2 7 C-1.125 1.125 -1.125 1.125 0 0 Z " fill="#4BA076" transform="translate(14,26)"/>
<path d="M0 0 C3.4375 0.25 3.4375 0.25 7 1 C9.23551759 4.35327639 9.17283528 4.90743657 8.625 8.6875 C8.45871094 9.89986328 8.45871094 9.89986328 8.2890625 11.13671875 C8.19367187 11.75160156 8.09828125 12.36648437 8 13 C7.236875 13.2475 6.47375 13.495 5.6875 13.75 C2.72509328 15.12786359 1.88592499 16.4282841 0 19 C-0.99 19 -1.98 19 -3 19 C-1.5 16 -1.5 16 0 13 C0.13789632 8.72521394 0.15469593 5.12391402 -1 1 C-0.67 0.67 -0.34 0.34 0 0 Z " fill="#EFF6E4" transform="translate(46,14)"/>
<path d="M0 0 C0.99 0.33 1.98 0.66 3 1 C3.33 3.31 3.66 5.62 4 8 C4.66 8 5.32 8 6 8 C6 8.66 6 9.32 6 10 C8.31 10.66 10.62 11.32 13 12 C12.979375 11.05125 12.95875 10.1025 12.9375 9.125 C13 6 13 6 14 4 C14.66 4 15.32 4 16 4 C16 6.64 16 9.28 16 12 C17.65 12 19.3 12 21 12 C21 12.66 21 13.32 21 14 C15.55552798 15.51852621 10.204255 16.19796467 5.125 13.4375 C1.49804034 9.27716391 0 5.50309934 0 0 Z " fill="#E9F1E2" transform="translate(20,46)"/>
<path d="M0 0 C0.66 0 1.32 0 2 0 C5.5495991 6.18644415 7.88421472 10.79996587 7 18 C6.34 18.99 5.68 19.98 5 21 C5 20.01 5 19.02 5 18 C1.37 18 -2.26 18 -6 18 C-6 17.34 -6 16.68 -6 16 C-2.78548731 14.39274365 0.43612536 14.94251815 4 15 C3.525625 13.906875 3.05125 12.81375 2.5625 11.6875 C0.81083727 7.65105979 -0.12000088 4.44003267 0 0 Z " fill="#E8F1E2" transform="translate(54,18)"/>
<path d="M0 0 C0 1.98 0 3.96 0 6 C1.0828125 5.6596875 1.0828125 5.6596875 2.1875 5.3125 C5.80795714 4.91022698 7.16529197 5.79522708 10 8 C10.33 8.99 10.66 9.98 11 11 C10.01 11.33 9.02 11.66 8 12 C7.01 11.01 6.02 10.02 5 9 C4.67 10.32 4.34 11.64 4 13 C3.34 11.35 2.68 9.7 2 8 C1.34 8 0.68 8 0 8 C-0.33 8.99 -0.66 9.98 -1 11 C-2.32 11 -3.64 11 -5 11 C-5.76534775 8.2447481 -6.19022104 6.55481136 -5.25 3.8125 C-3.94795199 1.92453039 -2.54976599 0 0 0 Z " fill="#D8E7D7" transform="translate(21,17)"/>
<path d="M0 0 C4.05479018 -0.18430864 6.45014657 0.10674484 10 2 C13.77097714 2.30576195 13.77097714 2.30576195 15.9375 1 C18.42729706 -0.20717433 20.2673025 -0.15181653 23 0 C23.33 1.65 23.66 3.3 24 5 C23.34 4.67 22.68 4.34 22 4 C22.33 3.34 22.66 2.68 23 2 C19.48994665 3.6380249 16.54456151 5.03134491 14 8 C13.67 7.34 13.34 6.68 13 6 C12.01 5.67 11.02 5.34 10 5 C9.67 5.99 9.34 6.98 9 8 C8.67 7.01 8.34 6.02 8 5 C5.62374655 3.81608777 5.62374655 3.81608777 3 3 C2.01 2.67 1.02 2.34 0 2 C0 1.34 0 0.68 0 0 Z " fill="#5CA583" transform="translate(23,20)"/>
<path d="M0 0 C0.33 0.99 0.66 1.98 1 3 C4.0745356 2.2236068 4.0745356 2.2236068 6 0 C6.5775 0.61875 7.155 1.2375 7.75 1.875 C9.80249821 3.81347053 11.43366582 4.90014249 14 6 C14.33 5.01 14.66 4.02 15 3 C14.67 4.65 14.34 6.3 14 8 C10.85375007 8.26218749 9.38162983 8.24754367 6.6875 6.5 C5.8521875 5.7575 5.8521875 5.7575 5 5 C4.01 5.66 3.02 6.32 2 7 C1.67 6.34 1.34 5.68 1 5 C0.46375 5.495 -0.0725 5.99 -0.625 6.5 C-3.59358445 8.37489544 -5.55312427 8.23501425 -9 8 C-9 7.34 -9 6.68 -9 6 C-8.071875 5.566875 -7.14375 5.13375 -6.1875 4.6875 C-3.52815927 3.27961373 -1.91894095 2.23876444 0 0 Z " fill="#5EAA83" transform="translate(32,42)"/>
<path d="M0 0 C-0.54723683 3.37462715 -1.0549 5.08235 -3 8 C-2.34 8.66 -1.68 9.32 -1 10 C-2.69270833 10.68359375 -4.38541667 11.3671875 -6.078125 12.05078125 C-8.09202817 12.95544435 -8.09202817 12.95544435 -9.90625 14.5625 C-12.45147549 16.30996825 -14.19213417 16.48632462 -17.25 16.6875 C-18.14203125 16.75324219 -19.0340625 16.81898437 -19.953125 16.88671875 C-20.62859375 16.92410156 -21.3040625 16.96148437 -22 17 C-22 16.67 -22 16.34 -22 16 C-17.545 15.505 -17.545 15.505 -13 15 C-13.33 14.01 -13.66 13.02 -14 12 C-12.68 11.67 -11.36 11.34 -10 11 C-10 10.34 -10 9.68 -10 9 C-9.01 9 -8.02 9 -7 9 C-5.88941214 6.92690266 -5.02601506 5.11381589 -4.5 2.8125 C-4.335 2.214375 -4.17 1.61625 -4 1 C-2 0 -2 0 0 0 Z " fill="#E2EDDE" transform="translate(54,45)"/>
<path d="M0 0 C0.99 0 1.98 0 3 0 C2.34 2.64 1.68 5.28 1 8 C3.64 8 6.28 8 9 8 C9 9.32 9 10.64 9 12 C6.03 11.67 3.06 11.34 0 11 C-0.33 12.32 -0.66 13.64 -1 15 C-1.92867074 12.21398777 -2.16342217 10.38933911 -2.1875 7.5 C-2.20167969 6.7265625 -2.21585938 5.953125 -2.23046875 5.15625 C-2 3 -2 3 0 0 Z " fill="#ECF4E4" transform="translate(11,25)"/>
<path d="M0 0 C0.33 0.66 0.66 1.32 1 2 C2.32 1.34 3.64 0.68 5 0 C4.67 1.32 4.34 2.64 4 4 C4.99 3.67 5.98 3.34 7 3 C7 4.32 7 5.64 7 7 C4.6875 7.625 4.6875 7.625 2 8 C1.01 7.34 0.02 6.68 -1 6 C-0.67 7.65 -0.34 9.3 0 11 C-0.99 11 -1.98 11 -3 11 C-3.66 10.34 -4.32 9.68 -5 9 C-5 7.68 -5 6.36 -5 5 C-3.68 5 -2.36 5 -1 5 C-0.67 3.35 -0.34 1.7 0 0 Z " fill="#D4E4D6" transform="translate(21,40)"/>
<path d="M0 0 C1.9375 0.375 1.9375 0.375 4 1 C5.30459914 3.60919828 5.1326594 5.58942615 5.125 8.5 C5.12757812 9.4796875 5.13015625 10.459375 5.1328125 11.46875 C5 14 5 14 4 16 C1.36 15.67 -1.28 15.34 -4 15 C-4.33 14.01 -4.66 13.02 -5 12 C-1.535 11.505 -1.535 11.505 2 11 C2 8.03 2 5.06 2 2 C1.34 2 0.68 2 0 2 C0 1.34 0 0.68 0 0 Z " fill="#EDF4E3" transform="translate(44,38)"/>
<path d="M0 0 C2.875 0.3125 2.875 0.3125 6 1 C8.29013653 4.4352048 8.17842973 5.985331 8 10 C7.01 10.33 6.02 10.66 5 11 C3 10 3 10 2.1484375 7.71484375 C1.89320312 6.79832031 1.63796875 5.88179687 1.375 4.9375 C1.11460938 4.01839844 0.85421875 3.09929688 0.5859375 2.15234375 C0.39257812 1.44207031 0.19921875 0.73179688 0 0 Z " fill="#E0EBDD" transform="translate(47,14)"/>
<path d="M0 0 C0.66 0 1.32 0 2 0 C2 2.64 2 5.28 2 8 C3.65 8 5.3 8 7 8 C7 8.66 7 9.32 7 10 C3.32589215 11.17571451 -0.16929183 11.07366746 -4 11 C-4 10.34 -4 9.68 -4 9 C-2.68 9 -1.36 9 0 9 C0 6.03 0 3.06 0 0 Z " fill="#F5F9E6" transform="translate(34,50)"/>
<path d="M0 0 C4.34586828 -0.39507893 6.32003497 -0.45331002 10 2 C8.68 2 7.36 2 6 2 C6 4.97 6 7.94 6 11 C5.34 11 4.68 11 4 11 C4 8.03 4 5.06 4 2 C2.02 2.33 0.04 2.66 -2 3 C-1.34 2.01 -0.68 1.02 0 0 Z " fill="#F5F9E7" transform="translate(30,9)"/>
<path d="M0 0 C0.7425 0.61875 1.485 1.2375 2.25 1.875 C4.48801188 3.60437281 6.43739987 4.86106661 9 6 C9.33 5.01 9.66 4.02 10 3 C9.67 4.65 9.34 6.3 9 8 C5.28400809 8.20086443 4.22791555 8.1519437 1 6 C1 5.34 1 4.68 1 4 C0.34 4 -0.32 4 -1 4 C-0.67 2.68 -0.34 1.36 0 0 Z " fill="#55A17F" transform="translate(37,42)"/>
<path d="M0 0 C0.66 0.66 1.32 1.32 2 2 C1.625 5.625 1.625 5.625 1 9 C0.67 8.01 0.34 7.02 0 6 C-3.63 6 -7.26 6 -11 6 C-11 5.34 -11 4.68 -11 4 C-7.37 4 -3.74 4 0 4 C0 2.68 0 1.36 0 0 Z " fill="#F3F8E6" transform="translate(59,30)"/>
<path d="M0 0 C2.64 0.66 5.28 1.32 8 2 C7 5 7 5 5.125 6.1875 C3 7 3 7 0 7 C0 4.69 0 2.38 0 0 Z " fill="#4B9F77" transform="translate(37,51)"/>
<path d="M0 0 C0 2.31 0 4.62 0 7 C-3.66223158 6.50510384 -5.66993926 5.94323463 -8 3 C-8 2.67 -8 2.34 -8 2 C-1.125 0 -1.125 0 0 0 Z " fill="#499E76" transform="translate(33,51)"/>
<path d="M0 0 C0.33 0 0.66 0 1 0 C1.33 1.98 1.66 3.96 2 6 C2.33 5.67 2.66 5.34 3 5 C5.67058851 4.85884839 8.32432238 4.95752893 11 5 C11 5.33 11 5.66 11 6 C8.69 6 6.38 6 4 6 C4.309375 7.1446875 4.309375 7.1446875 4.625 8.3125 C5 11 5 11 3 14 C0.56574762 9.03006806 -0.34615998 5.65394631 0 0 Z " fill="#D4E3D8" transform="translate(8,31)"/>
<path d="M0 0 C0.33 0.66 0.66 1.32 1 2 C4.3 2 7.6 2 11 2 C10.67 2.99 10.34 3.98 10 5 C7.03 4.67 4.06 4.34 1 4 C0.67 5.32 0.34 6.64 0 8 C-0.38063221 5.6739143 -0.71269945 3.33944736 -1 1 C-0.67 0.67 -0.34 0.34 0 0 Z " fill="#F6FAE8" transform="translate(10,32)"/>
<path d="M0 0 C0.33 0 0.66 0 1 0 C0.88601335 1.62580966 0.75844341 3.25067157 0.625 4.875 C0.55539063 5.77992187 0.48578125 6.68484375 0.4140625 7.6171875 C0 10 0 10 -2 12 C-3.0625 10.1875 -3.0625 10.1875 -4 8 C-3.67 7.01 -3.34 6.02 -3 5 C-5.64 5 -8.28 5 -11 5 C-11 4.67 -11 4.34 -11 4 C-7.7 4 -4.4 4 -1 4 C-0.67 2.68 -0.34 1.36 0 0 Z " fill="#CCDDD3" transform="translate(61,32)"/>
<path d="M0 0 C2.31 0 4.62 0 7 0 C6.67 1.65 6.34 3.3 6 5 C4.68 5 3.36 5 2 5 C1.34 4.34 0.68 3.68 0 3 C0 2.01 0 1.02 0 0 Z " fill="#489F75" transform="translate(51,37)"/>
<path d="M0 0 C0.928125 1.175625 0.928125 1.175625 1.875 2.375 C3.89858661 4.96837647 3.89858661 4.96837647 6 7 C5.34 7.66 4.68 8.32 4 9 C3.01 9 2.02 9 1 9 C0.67 7.68 0.34 6.36 0 5 C-0.66 5 -1.32 5 -2 5 C-2 3.68 -2 2.36 -2 1 C-1.34 0.67 -0.68 0.34 0 0 Z " fill="#51A17C" transform="translate(20,27)"/>
<path d="M0 0 C0 1.98 0 3.96 0 6 C-5.75 5.25 -5.75 5.25 -8 3 C-3.375 0 -3.375 0 0 0 Z " fill="#4A9F76" transform="translate(33,12)"/>
<path d="M0 0 C4.75 0.875 4.75 0.875 7 2 C6.67 2.99 6.34 3.98 6 5 C4.02 5.33 2.04 5.66 0 6 C0 4.02 0 2.04 0 0 Z " fill="#4DA178" transform="translate(37,12)"/>
<path d="M0 0 C0.33 0.66 0.66 1.32 1 2 C1.99 2.33 2.98 2.66 4 3 C3.67 3.99 3.34 4.98 3 6 C2.34 6 1.68 6 1 6 C0.67 7.98 0.34 9.96 0 12 C-0.33 12 -0.66 12 -1 12 C-1 9.36 -1 6.72 -1 4 C-1.66 4 -2.32 4 -3 4 C-3.33 4.66 -3.66 5.32 -4 6 C-4 5.01 -4 4.02 -4 3 C-2 1.3125 -2 1.3125 0 0 Z " fill="#D4E4D6" transform="translate(37,46)"/>
<path d="M0 0 C-0.99 0.495 -0.99 0.495 -2 1 C-2.33 1.66 -2.66 2.32 -3 3 C-5.475 2.01 -5.475 2.01 -8 1 C-8.33 2.98 -8.66 4.96 -9 7 C-9.33 7 -9.66 7 -10 7 C-10 4.69 -10 2.38 -10 0 C-6.30581799 -1.231394 -3.7943739 -0.64432764 0 0 Z " fill="#CFDFD4" transform="translate(46,37)"/>
<path d="M0 0 C1.32 0.99 2.64 1.98 4 3 C1.02819057 4.89865603 -1.51460083 6.35455571 -5 7 C-5 5.68 -5 4.36 -5 3 C-3.35 2.67 -1.7 2.34 0 2 C0 1.34 0 0.68 0 0 Z " fill="#439771" transform="translate(22,34)"/>
<path d="M0 0 C0.99 0.33 1.98 0.66 3 1 C2.3125 3.4375 2.3125 3.4375 1 6 C-1.625 6.8125 -1.625 6.8125 -4 7 C-2.68 4.69 -1.36 2.38 0 0 Z " fill="#ECF3E3" transform="translate(54,47)"/>
<path d="M0 0 C0.33 0.66 0.66 1.32 1 2 C2.65 2 4.3 2 6 2 C4.1875 4.5 4.1875 4.5 2 7 C-1 7 -1 7 -3 6 C-2.01 4.02 -1.02 2.04 0 0 Z " fill="#489C75" transform="translate(49,26)"/>
<path d="M0 0 C0.6875 2.3125 0.6875 2.3125 1 5 C-0.4375 6.8125 -0.4375 6.8125 -2 8 C-1.67 6.68 -1.34 5.36 -1 4 C-2.32 4.33 -3.64 4.66 -5 5 C-5.33 4.01 -5.66 3.02 -6 2 C-3 0 -3 0 0 0 Z " fill="#D6E7D5" transform="translate(46,22)"/>
<path d="M0 0 C2.9375 1.25 2.9375 1.25 6 3 C6.875 5.1875 6.875 5.1875 7 7 C4.03 6.505 4.03 6.505 1 6 C0.4465236 3.92446352 0 2.15634036 0 0 Z " fill="#D8E6D9" transform="translate(16,49)"/>
<path d="M0 0 C0.78375 0.495 1.5675 0.99 2.375 1.5 C4.78552327 3.16537965 4.78552327 3.16537965 7 3 C7 4.32 7 5.64 7 7 C5.68 7 4.36 7 3 7 C3 6.34 3 5.68 3 5 C2.34 5 1.68 5 1 5 C0.67 3.35 0.34 1.7 0 0 Z " fill="#F5F9E6" transform="translate(25,25)"/>
<path d="M0 0 C1.04449911 3.13349732 0.93423645 3.98968256 0 7 C-1.32 7.33 -2.64 7.66 -4 8 C-4.33 7.34 -4.66 6.68 -5 6 C-3.78741495 2.76643985 -2.98715542 1.99143695 0 0 Z " fill="#519B7D" transform="translate(20,17)"/>
<path d="M0 0 C2.375 0.1875 2.375 0.1875 5 1 C6.3125 3.5625 6.3125 3.5625 7 6 C6.21625 5.67 5.4325 5.34 4.625 5 C2.15667503 3.88133489 2.15667503 3.88133489 0 4 C0 2.68 0 1.36 0 0 Z " fill="#F5F9E6" transform="translate(38,38)"/>
<path d="M0 0 C0.66 0 1.32 0 2 0 C6 5.41176471 6 5.41176471 6 8 C4.125 7.6875 4.125 7.6875 2 7 C0 4 0 4 0 0 Z " fill="#F0F6E5" transform="translate(21,25)"/>
<path d="M0 0 C4.875 3.625 4.875 3.625 6 7 C5.01 7.33 4.02 7.66 3 8 C2.34 7.67 1.68 7.34 1 7 C0.59270772 4.67843403 0.25561323 2.3431213 0 0 Z " fill="#499877" transform="translate(49,17)"/>
<path d="M0 0 C2.31 0.33 4.62 0.66 7 1 C7.33 2.65 7.66 4.3 8 6 C5.36 4.68 2.72 3.36 0 2 C0 1.34 0 0.68 0 0 Z " fill="#EFF6E4" transform="translate(25,17)"/>
<path d="M0 0 C1.65 0.33 3.3 0.66 5 1 C4.8125 2.875 4.8125 2.875 4 5 C1.4375 6.25 1.4375 6.25 -1 7 C-1.33 6.34 -1.66 5.68 -2 5 C-1.34 5 -0.68 5 0 5 C0 3.35 0 1.7 0 0 Z " fill="#F2F8E5" transform="translate(40,25)"/>
<path d="M0 0 C0.99 0 1.98 0 3 0 C3 2.31 3 4.62 3 7 C2.01 7 1.02 7 0 7 C-0.93423645 3.98968256 -1.04449911 3.13349732 0 0 Z " fill="#E0EBDD" transform="translate(33,38)"/>
<path d="M0 0 C-0.3125 2.375 -0.3125 2.375 -1 5 C-1.99 5.66 -2.98 6.32 -4 7 C-5 5 -5 5 -4.6875 2.9375 C-3.74042307 0.26846502 -2.76591243 0 0 0 Z " fill="#449A72" transform="translate(54,45)"/>
<path d="M0 0 C1.32 0.33 2.64 0.66 4 1 C4.33 2.65 4.66 4.3 5 6 C4.01 6 3.02 6 2 6 C1.34 5.34 0.68 4.68 0 4 C0 2.68 0 1.36 0 0 Z " fill="#4B9E77" transform="translate(16,45)"/>
<path d="M0 0 C3 1 3 1 5 3 C2.69 3.66 0.38 4.32 -2 5 C-2 4.34 -2 3.68 -2 3 C-2.66 2.67 -3.32 2.34 -4 2 C-3.01 2 -2.02 2 -1 2 C-0.67 1.34 -0.34 0.68 0 0 Z " fill="#CFDFD4" transform="translate(48,52)"/>
<path d="M0 0 C0.33 1.32 0.66 2.64 1 4 C2.98 4.495 2.98 4.495 5 5 C4.67 5.99 4.34 6.98 4 8 C3.01 8 2.02 8 1 8 C-0.35439668 5.29120665 -0.06501451 2.99066732 0 0 Z " fill="#DCEADA" transform="translate(49,20)"/>
<path d="M0 0 C1.98 0 3.96 0 6 0 C6.33 1.65 6.66 3.3 7 5 C4.69 4.01 2.38 3.02 0 2 C0 1.34 0 0.68 0 0 Z " fill="#60AB84" transform="translate(23,20)"/>
<path d="M0 0 C3.875 1.75 3.875 1.75 5 4 C4.01 5.485 4.01 5.485 3 7 C0 2.25 0 2.25 0 0 Z " fill="#4C9977" transform="translate(29,21)"/>
</svg>
